<svg width="111" height="113" viewBox="0 0 111 113" fill="none" xmlns="http://www.w3.org/2000/svg">
<g opacity="0.6">
<rect x="0.372483" y="0.372483" width="110.255" height="111.745" rx="2.60738" fill="black"/>
<rect x="0.372483" y="0.372483" width="110.255" height="111.745" rx="2.60738" stroke="url(#paint0_linear_3006_2268)" stroke-width="0.744966"/>
<g opacity="0.12" clip-path="url(#clip0_3006_2268)">
<path d="M60.0217 35.8938C59.1398 34.4225 57.5551 33.5234 55.8453 33.5234C54.1356 33.5234 52.5516 34.4225 51.669 35.8938L44.7992 47.7137C55.4784 53.0693 62.5313 63.7106 63.3311 75.6738H58.5075C57.709 65.4196 51.5692 56.3551 42.3665 51.8455L36.0084 62.8894C41.1756 65.2173 44.807 70.0275 45.6446 75.6529H34.5678C34.3012 75.6339 34.0613 75.4813 33.9309 75.2463C33.8006 75.0112 33.7967 74.727 33.9205 74.4886L36.9901 69.245C35.9504 68.3734 34.7614 67.6983 33.4818 67.2524L30.4436 72.4961C29.8048 73.5968 29.632 74.909 29.9632 76.1387C30.295 77.3685 31.1032 78.4135 32.2081 79.0402C32.9284 79.4481 33.7406 79.6649 34.5678 79.6695H49.7376C50.3105 72.5661 47.1419 65.6796 41.3855 61.515L43.7973 57.3197C51.0654 62.3342 55.1544 70.8329 54.5508 79.6695H67.4032C68.012 66.2807 61.4864 53.5775 50.2708 46.3183L55.1466 37.9283C55.3728 37.5479 55.8616 37.4215 56.243 37.6454C56.7964 37.9493 77.4267 74.1115 77.8125 74.5312C77.9514 74.7807 77.9462 75.0858 77.7995 75.3307C77.6528 75.5756 77.3869 75.7229 77.1027 75.7164H72.133C72.1956 77.0515 72.1956 78.3841 72.133 79.7127H77.1235C78.4038 79.7212 79.6338 79.2144 80.5399 78.3061C81.4459 77.3979 81.9524 76.163 81.9472 74.8776C81.9472 74.0368 81.7243 73.2111 81.2999 72.4863L60.0217 35.8938Z" fill="white"/>
</g>
</g>
<defs>
<linearGradient id="paint0_linear_3006_2268" x1="-26.4463" y1="-28.3087" x2="55.5" y2="112.49" gradientUnits="userSpaceOnUse">
<stop/>
<stop offset="1" stop-color="#666666"/>
</linearGradient>
<clipPath id="clip0_3006_2268">
<rect width="52.1477" height="46.1879" fill="white" transform="translate(29.7988 33.5234)"/>
</clipPath>
</defs>
</svg>
