<svg width="93" height="95" viewBox="0 0 93 95" fill="none" xmlns="http://www.w3.org/2000/svg">
<rect x="0.318493" y="0.318493" width="92.363" height="93.637" rx="2.22945" fill="black"/>
<rect x="0.318493" y="0.318493" width="92.363" height="93.637" rx="2.22945" stroke="url(#paint0_linear_3006_2246)" stroke-width="0.636986"/>
<g clip-path="url(#clip0_3006_2246)">
<path d="M47.0855 40.3374H48.9369V49.532C48.9369 51.9565 47.8354 53.6491 45.2809 53.6491C44.32 53.6491 43.5701 53.489 43.0544 53.306V51.5448C43.6169 51.7736 44.2966 51.8879 44.9762 51.8879C46.5464 51.8879 47.0855 50.973 47.0855 49.6464V40.3374Z" fill="white"/>
<path d="M52.3352 39.6284C53.0617 39.6284 53.5773 40.063 53.5773 40.8406C53.5773 41.5954 53.0617 42.0529 52.3352 42.0529C51.6086 42.0529 51.0931 41.6183 51.0931 40.8406C51.0931 40.0859 51.6086 39.6284 52.3352 39.6284ZM51.4212 43.4938H53.2023V53.5577H51.4212V43.4938Z" fill="white"/>
<path d="M57.6085 53.5575H55.8742V43.4937H57.6085V45.2549C58.2178 44.0655 59.2491 43.2192 61.2646 43.3336V45.0261C58.9913 44.7974 57.6085 45.4607 57.6085 47.6107V53.5575Z" fill="white"/>
<path d="M69.584 51.7503C68.9278 53.0769 67.6857 53.7631 66.092 53.7631C63.35 53.7631 61.9672 51.4987 61.9672 48.5253C61.9672 45.6891 63.4202 43.2876 66.303 43.2876C67.8028 43.2876 68.9747 43.9509 69.584 45.2546V43.4934H71.3652V53.5573H69.584V51.7503ZM66.5607 52.162C68.1544 52.162 69.5606 51.1785 69.5606 48.937V48.1365C69.5606 45.895 68.2716 44.9115 66.7482 44.9115C64.7561 44.9115 63.725 46.1924 63.725 48.5253C63.7484 50.9498 64.7327 52.162 66.5607 52.162Z" fill="white"/>
<path d="M37.7813 38.2788H29.6724C29.6724 40.2458 31.3129 41.8469 33.3285 41.8469H34.8283V43.2421C34.8283 45.2091 36.4689 46.8102 38.4844 46.8102V38.965C38.4844 38.5762 38.1798 38.2788 37.7813 38.2788Z" fill="#2684FF"/>
<path d="M33.7736 42.2129H25.6647C25.6647 44.1799 27.3052 45.781 29.3207 45.781H30.8206V47.1991C30.8206 49.166 32.4612 50.7672 34.4767 50.7672V42.899C34.4767 42.5331 34.172 42.2129 33.7736 42.2129Z" fill="url(#paint1_linear_3006_2246)"/>
<path d="M29.766 46.1699H21.657C21.657 48.1369 23.2975 49.738 25.313 49.738H26.813V51.1332C26.813 53.1002 28.4535 54.7012 30.469 54.7012V46.856C30.469 46.4672 30.1409 46.1699 29.766 46.1699Z" fill="url(#paint2_linear_3006_2246)"/>
</g>
<defs>
<linearGradient id="paint0_linear_3006_2246" x1="46.5" y1="0" x2="46.5" y2="94.274" gradientUnits="userSpaceOnUse">
<stop/>
<stop offset="1" stop-color="#666666"/>
</linearGradient>
<linearGradient id="paint1_linear_3006_2246" x1="34.3042" y1="42.2326" x2="30.9431" y2="45.7842" gradientUnits="userSpaceOnUse">
<stop offset="0.176" stop-color="#0052CC"/>
<stop offset="1" stop-color="#2684FF"/>
</linearGradient>
<linearGradient id="paint2_linear_3006_2246" x1="30.5219" y1="46.1962" x2="26.6302" y2="50.0761" gradientUnits="userSpaceOnUse">
<stop offset="0.176" stop-color="#0052CC"/>
<stop offset="1" stop-color="#2684FF"/>
</linearGradient>
<clipPath id="clip0_3006_2246">
<rect width="49.6849" height="21.0205" fill="white" transform="translate(21.6575 36.3081)"/>
</clipPath>
</defs>
</svg>
