<svg width="20" height="20" viewBox="0 0 20 20" fill="none" xmlns="http://www.w3.org/2000/svg">
<g clip-path="url(#clip0_2620_44121)">
<path d="M8.75 10C8.75 10.1772 8.67481 10.346 8.54309 10.4646L5.41809 13.2771C5.16153 13.508 4.76634 13.4872 4.53544 13.2306C4.30453 12.974 4.32534 12.5788 4.58191 12.3479L7.19072 10L4.58191 7.65206C4.32534 7.42116 4.30453 7.02597 4.53544 6.76941C4.76634 6.51284 5.16153 6.49203 5.41809 6.72294L8.54309 9.53544C8.67481 9.65397 8.75 9.82281 8.75 10Z" fill="white"/>
<path d="M15 13.4375C15.3452 13.4375 15.625 13.1577 15.625 12.8125C15.625 12.4673 15.3452 12.1875 15 12.1875H10C9.65481 12.1875 9.375 12.4673 9.375 12.8125C9.375 13.1577 9.65481 13.4375 10 13.4375H15Z" fill="white"/>
<path fill-rule="evenodd" clip-rule="evenodd" d="M0.625 5.625C0.625 2.86357 2.86357 0.625 5.625 0.625H14.375C17.1364 0.625 19.375 2.86357 19.375 5.625V14.375C19.375 17.1364 17.1364 19.375 14.375 19.375H5.625C2.86357 19.375 0.625 17.1364 0.625 14.375V5.625ZM5.625 1.875C3.55394 1.875 1.875 3.55394 1.875 5.625V14.375C1.875 16.4461 3.55394 18.125 5.625 18.125H14.375C16.4461 18.125 18.125 16.4461 18.125 14.375V5.625C18.125 3.55394 16.4461 1.875 14.375 1.875H5.625Z" fill="white"/>
</g>
<defs>
<clipPath id="clip0_2620_44121">
<rect width="20" height="20" fill="white"/>
</clipPath>
</defs>
</svg>
