<svg width="213" height="148" viewBox="0 0 213 148" fill="none" xmlns="http://www.w3.org/2000/svg">
<path d="M5.67285 54.8403H50.584" stroke="#8A2060" stroke-width="0.5" stroke-linecap="round" stroke-dasharray="3 3"/>
<path d="M5.67285 95.4966H51.0568" stroke="#8A2060" stroke-width="0.5" stroke-linecap="round" stroke-dasharray="3 3"/>
<path d="M51.057 15.6021H10.7275C7.41382 15.6021 4.72754 18.2883 4.72754 21.6021V129.208C4.72754 132.521 7.41383 135.208 10.7275 135.208H51.057" stroke="#8A2060" stroke-width="0.5" stroke-linecap="round" stroke-dasharray="3 3"/>
<rect x="51.5571" y="0.5" width="160.943" height="27.4111" rx="4.5" stroke="#8A2060"/>
<rect x="51.5571" y="40.2734" width="160.943" height="27.4111" rx="4.5" stroke="#8A2060"/>
<rect x="51.5571" y="80.0513" width="160.943" height="27.4111" rx="4.5" stroke="#8A2060"/>
<rect x="51.5571" y="119.588" width="160.943" height="27.4111" rx="4.5" stroke="#8A2060"/>
<path d="M73.7856 9.94238H201.991" stroke="#8A2060" stroke-linecap="round"/>
<path d="M73.7856 49.7197H201.991" stroke="#8A2060" stroke-linecap="round"/>
<path d="M73.7856 89.4937H201.991" stroke="#8A2060" stroke-linecap="round"/>
<path d="M73.7856 129.031H201.991" stroke="#8A2060" stroke-linecap="round"/>
<path d="M73.7856 19.1758H152.626" stroke="#8A2060" stroke-linecap="round"/>
<path d="M73.7856 58.9531H152.626" stroke="#8A2060" stroke-linecap="round"/>
<path d="M73.7856 98.7271H152.626" stroke="#8A2060" stroke-linecap="round"/>
<path d="M73.7856 138.264H152.626" stroke="#8A2060" stroke-linecap="round"/>
<path d="M133.315 28.3662V40.1849" stroke="#8A2060" stroke-linecap="round" stroke-dasharray="3 3"/>
<path d="M133.315 68.0771V79.8959" stroke="#8A2060" stroke-linecap="round" stroke-dasharray="3 3"/>
<path d="M133.315 106.843V118.662" stroke="#8A2060" stroke-linecap="round" stroke-dasharray="3 3"/>
<circle cx="4.25474" cy="55.3128" r="4.00474" fill="#F1D5E8" stroke="#8A2060" stroke-width="0.5"/>
<circle cx="4.25474" cy="95.0238" r="4.00474" fill="#F1D5E8" stroke="#8A2060" stroke-width="0.5"/>
</svg>
