<svg width="151" height="151" viewBox="0 0 151 151" fill="none" xmlns="http://www.w3.org/2000/svg">
<path d="M51.5 52.5L97.5 98.5" stroke="#8A6010" stroke-linecap="round"/>
<path d="M74.5 43V108" stroke="#8A6010" stroke-linecap="round"/>
<path d="M42.5 75.5H107.5" stroke="#8A6010" stroke-linecap="round"/>
<path d="M51.5 98.5L97.5 52.5" stroke="#8A6010" stroke-linecap="round"/>
<path d="M47 7L55.5 26.5" stroke="#8A6010" stroke-linecap="round"/>
<path d="M22 22.5L37 37.5" stroke="#8A6010" stroke-linecap="round"/>
<path d="M6 47L26.5 55.5" stroke="#8A6010" stroke-linecap="round"/>
<path d="M0.5 75.5H22.5" stroke="#8A6010" stroke-linecap="round"/>
<path d="M6 103.5L25.5 95.5" stroke="#8A6010" stroke-linecap="round"/>
<path d="M22.5 128.5L37 113.5" stroke="#8A6010" stroke-linecap="round"/>
<path d="M47 144.5L55 125" stroke="#8A6010" stroke-linecap="round"/>
<path d="M75 150V129" stroke="#8A6010" stroke-linecap="round"/>
<path d="M103 144L95.5 125.5" stroke="#8A6010" stroke-linecap="round"/>
<path d="M128 128L113.5 113.5" stroke="#8A6010" stroke-linecap="round"/>
<path d="M144.5 103.5L124.5 95.5" stroke="#8A6010" stroke-linecap="round"/>
<path d="M128.5 75H150" stroke="#8A6010" stroke-linecap="round"/>
<path d="M75.5 0.5V22" stroke="#8A6010" stroke-linecap="round"/>
<path d="M104 6L96 26" stroke="#8A6010" stroke-linecap="round"/>
<path d="M128 22.5L113 37.5" stroke="#8A6010" stroke-linecap="round"/>
<path d="M144 47L124 55.5" stroke="#8A6010" stroke-linecap="round"/>
<circle cx="74.5" cy="75.5" r="14.5" fill="#DFC860" stroke="#8A6010"/>
<path d="M68.5 74.9286L73.9545 79.5L83.5 71.5" stroke="#8A6010" stroke-linecap="round"/>
</svg>
